***************************************************************************

                        XxX Releasers Group

***************************************************************************

screens;
 
http://adulthub.eu/?v=121206nora.jpeg
 
http://adulthub.eu/?v=121206oco.jpeg
 
http://adulthub.eu/?v=121206pop.jpeg

****************************************************************************


General
Format                                   : MPEG-4
Format profile                           : Base Media
Codec ID                                 : isom
File size                                : 640 MiB
Duration                                 : 28mn 39s
Overall bit rate mode                    : Variable
Overall bit rate                         : 3 122 Kbps
Encoded date                             : UTC 2012-11-30 21:57:30
Tagged date                              : UTC 2012-11-30 21:57:30
Writing application                      : Lavf53.32.100

Video
ID                                       : 1
Format                                   : AVC
Format/Info                              : Advanced Video Codec
Format profile                           : High@L3.0
Format settings, CABAC                   : Yes
Format settings, ReFrames                : 4 frames
Codec ID                                 : avc1
Codec ID/Info                            : Advanced Video Coding
Duration                                 : 28mn 39s
Bit rate                                 : 3 000 Kbps
Width                                    : 1 280 pixels
Height                                   : 720 pixels
Display aspect ratio                     : 16:9
Frame rate mode                          : Constant
Frame rate                               : 30.000 fps
Color space                              : YUV
Chroma subsampling                       : 4:2:0
Bit depth                                : 8 bits
Scan type                                : Progressive
Bits/(Pixel*Frame)                       : 0.109
Stream size                              : 615 MiB (96%)
Writing library                          : x264 core 120
Encoding settings                        : cabac=1 
Language                                 : English
Encoded date                             : UTC 2012-11-30 21:57:30
Tagged date                              : UTC 2012-11-30 21:57:30

Audio
ID                                       : 2
Format                                   : AAC
Format/Info                              : Advanced Audio Codec
Format profile                           : LC
Codec ID                                 : 40
Duration                                 : 28mn 39s
Bit rate mode                            : Variable
Bit rate                                 : 114 Kbps
Maximum bit rate                         : 128 Kbps
Channel(s)                               : 2 channels
Channel positions                        : Front: L R
Sampling rate                            : 44.1 KHz
Compression mode                         : Lossy
Delay relative to video                  : 67ms
Stream size                              : 23.3 MiB (4%)
Language                                 : English
Encoded date                             : UTC 2012-11-30 21:57:30
Tagged date                              : UTC 2012-11-30 21:57:30
